<?xml version="1.0" standalone="no"?>
<!DOCTYPE svg PUBLIC "-//W3C//DTD SVG 20010904//EN"
 "http://www.w3.org/TR/2001/REC-SVG-20010904/DTD/svg10.dtd">
<svg version="1.0" xmlns="http://www.w3.org/2000/svg"
 width="239.000000pt" height="239.000000pt" viewBox="0 0 239.000000 239.000000"
 preserveAspectRatio="xMidYMid meet">
<metadata>
Created by potrace 1.11, written by Peter Selinger 2001-2013
</metadata>
<g transform="translate(0.000000,239.000000) scale(0.100000,-0.100000)"
fill="#000000" stroke="none">
<path d="M1891 1910 c-25 -4 -47 -12 -49 -18 -2 -6 -10 -8 -17 -5 -8 3 -43 -8
-78 -25 -99 -46 -213 -167 -233 -247 -4 -15 -14 -29 -23 -33 -9 -3 -33 -17
-53 -30 l-38 -25 -40 27 c-107 71 -245 49 -340 -54 l-45 -49 -58 16 c-38 11
-62 24 -69 37 -21 40 -80 106 -108 121 -16 8 -41 26 -55 40 -41 37 -150 65
-261 67 -63 1 -151 -27 -165 -54 -6 -11 -16 -17 -24 -14 -25 9 -155 -109 -155
-143 0 -9 -11 -26 -24 -38 -33 -31 -51 -105 -48 -194 2 -73 20 -141 41 -153 5
-4 12 -19 16 -35 8 -38 111 -131 145 -131 6 0 32 -9 57 -21 45 -20 50 -21 153
-6 14 2 38 9 54 16 28 11 45 4 46 -19 0 -3 15 -22 34 -42 33 -34 33 -36 19
-69 -23 -52 -21 -134 3 -166 43 -58 68 -68 164 -68 86 0 90 -1 122 -32 63 -60
152 -92 240 -87 48 4 101 26 150 66 26 21 28 21 82 4 30 -10 80 -17 111 -17
141 0 221 48 277 169 17 34 36 62 44 62 27 0 109 48 140 82 34 36 48 68 63
143 5 28 21 71 36 96 25 45 26 46 74 46 33 0 59 7 78 20 15 11 45 28 66 38 45
21 115 98 123 134 3 14 12 41 21 59 17 33 21 132 8 200 -8 48 -51 129 -75 142
-11 6 -20 16 -20 22 0 27 -138 128 -176 128 -12 0 -27 6 -33 14 -11 13 -49 23
-116 31 -11 1 -40 -1 -64 -5z"/>
</g>
</svg>
